<?xml version="1.0" standalone="no"?>
<!DOCTYPE svg PUBLIC "-//W3C//DTD SVG 20010904//EN"
 "http://www.w3.org/TR/2001/REC-SVG-20010904/DTD/svg10.dtd">
<svg version="1.0" xmlns="http://www.w3.org/2000/svg"
 width="512.000000pt" height="512.000000pt" viewBox="0 0 512.000000 512.000000"
 preserveAspectRatio="xMidYMid meet">

<g transform="translate(0.000000,512.000000) scale(0.100000,-0.100000)"
fill="#000000" stroke="none">
<path d="M2390 4580 c-252 -15 -433 -48 -639 -116 -396 -130 -696 -357 -841
-636 -36 -70 -49 -78 -124 -78 -43 0 -140 -26 -201 -54 -79 -36 -157 -114
-199 -199 -20 -40 -36 -78 -36 -83 0 -5 -33 -26 -74 -47 -214 -110 -312 -295
-261 -492 45 -170 193 -313 370 -356 28 -6 56 -13 63 -15 9 -3 6 -13 -12 -37
-45 -58 -69 -127 -69 -192 0 -162 144 -263 428 -298 l99 -13 116 -271 c215
-502 259 -578 425 -748 203 -208 455 -343 729 -392 122 -21 333 -21 461 2 196
34 432 128 610 242 119 77 234 175 375 320 253 257 449 523 578 779 l41 82 63
6 c290 30 421 172 364 394 -9 35 -16 65 -16 67 0 2 17 7 38 10 234 40 419 211
438 406 11 112 -34 244 -117 344 -39 47 -39 48 -39 134 0 48 -7 113 -15 146
-55 210 -243 378 -510 457 -52 15 -105 21 -207 23 l-138 3 -48 59 c-27 32 -82
89 -122 126 -330 305 -906 466 -1530 427z m530 -226 c517 -66 900 -296 1078
-649 44 -88 118 -291 147 -405 176 -679 -72 -1441 -649 -1997 -72 -69 -175
-160 -231 -201 -259 -197 -610 -370 -780 -386 -87 -8 -246 8 -345 34 -117 32
-301 128 -405 213 -398 325 -686 966 -766 1707 -17 160 -15 510 4 635 45 289
88 406 209 563 284 368 1027 576 1738 486z m1455 -621 c156 -39 289 -132 342
-242 29 -58 33 -109 22 -263 l-4 -57 62 -63 c34 -35 71 -83 82 -108 24 -52 27
-127 7 -174 -19 -47 -82 -105 -144 -134 -66 -30 -190 -39 -270 -20 l-53 13 -4
190 c-5 275 -35 429 -140 718 -30 83 -55 154 -55 157 0 10 83 1 155 -17z
m-3575 -206 c0 -6 -5 -28 -10 -47 -29 -98 -43 -253 -44 -485 l-2 -240 -49 -19
c-76 -29 -233 -28 -300 2 -109 50 -193 171 -180 258 12 83 94 163 216 209 81
31 95 46 119 124 33 111 77 159 175 193 60 21 75 22 75 5z m4 -1174 c14 -79
26 -149 26 -156 0 -26 -193 16 -232 51 -32 27 -22 68 30 124 46 49 142 132
147 126 2 -2 15 -67 29 -145z m3616 55 c42 -91 46 -127 20 -160 -19 -25 -72
-48 -111 -48 -16 0 -15 5 1 58 10 31 26 92 36 135 10 42 19 77 21 77 2 0 17
-28 33 -62z"/>
<path d="M1764 3026 c-29 -29 -34 -41 -34 -80 0 -93 62 -150 136 -126 52 17
74 53 74 117 0 49 -4 59 -34 89 -26 26 -42 34 -71 34 -29 0 -45 -8 -71 -34z"/>
<path d="M3149 3032 c-26 -23 -33 -38 -37 -80 -2 -30 1 -64 8 -81 22 -53 83
-78 135 -57 48 21 65 51 65 119 0 54 -3 62 -34 93 -44 44 -92 46 -137 6z"/>
<path d="M2777 2707 c-29 -23 -45 -67 -39 -105 2 -12 21 -41 43 -64 21 -23 39
-43 39 -46 0 -25 -40 -76 -71 -92 -81 -42 -256 -16 -288 42 -14 24 -13 32 8
92 28 80 23 114 -26 157 -31 27 -42 30 -75 26 -52 -7 -62 -17 -93 -95 -64
-157 -35 -301 75 -377 75 -52 160 -75 273 -75 151 0 244 35 320 119 44 48 66
90 83 156 23 85 19 117 -23 168 -95 114 -166 143 -226 94z"/>
<path d="M3149 2175 c-14 -7 -43 -40 -64 -71 -154 -234 -418 -317 -697 -220
-101 35 -171 80 -266 171 -75 71 -88 80 -122 80 -66 0 -115 -65 -100 -131 14
-60 132 -176 252 -247 395 -234 885 -130 1117 237 51 82 38 152 -35 182 -41
17 -52 17 -85 -1z"/>
</g>
</svg>
